# xmcd
#
# Track frame offsets:
#   150
#   19632
#   36735
#   49510
#   71902
#   86102
#   108572
#   124430
#   139060
#   154482
#   173162
#   188997
#   210017
#   235205
#
# Disc length: 3426 seconds
#
# Revision: 0
# Processed by: cddbd v1.4PL0 Copyright (c) Steve Scherf et al.
# Submitted via: uFREEDB ActiveX Control 1.5
#
DISCID=cc0d600e
DTITLE=Xirú Missioneiro - As Melhores De
DYEAR=1900
DGENRE=Country
TTITLE0=Bagual e Meio
TTITLE1=Peste do Chifre
TTITLE2=Fazendeiro em Decadência
TTITLE3=De Espora e Mango
TTITLE4=Gaudério Boa Vida
TTITLE5=O Répi do Guasca
TTITLE6=Tango do Matungo
TTITLE7=Pampa de 23
TTITLE8=Procurando Sarna
TTITLE9=Bailanta da Tia Fia
TTITLE10=Dexa Que Vá
TTITLE11=Prosa de Compadre
TTITLE12=Meu Canto Selvagem
TTITLE13=A Dança do Véio
EXTD=
EXTT0=
EXTT1=
EXTT2=
EXTT3=
EXTT4=
EXTT5=
EXTT6=
EXTT7=
EXTT8=
EXTT9=
EXTT10=
EXTT11=
EXTT12=
EXTT13=
PLAYORDER=
